name analog
datacolumns 19
datarows 38
range 0.5895 0.608
endheader
time	ground_force_vx	ground_force_vy	ground_force_vz	ground_force_px	ground_force_py	ground_force_pz	l_ground_force_vx	l_ground_force_vy	l_ground_force_vz	l_ground_force_px	l_ground_force_py	l_ground_force_pz	ground_torque_x	ground_torque_y	ground_torque_z	l_ground_torque_x	l_ground_torque_y	l_ground_torque_z
0.5895	-0.0	-0.0	-0.0	6.420820713043213	29.06117820739746	-344.5316772460937	-17.387313842773438	-41.24623107910156	-603.9943237304688	-0.0	-0.0	-0.0	-0.0	-0.0	-0.0	168110.90625	-34085.703125	-4652.04541015625
0.59	-0.0	-0.0	-0.0	7.088896751403809	29.55228805541992	-346.2885437011719	-17.480737686157227	-41.236846923828125	-598.6112060546875	-0.0	-0.0	-0.0	-0.0	-0.0	-0.0	166657.8125	-33862.57421875	-4534.9921875
0.5905	-0.0	-0.0	-0.0	7.622298717498779	29.728105545043945	-349.2867126464844	-17.466888427734375	-41.15790557861328	-594.4216918945312	-0.0	-0.0	-0.0	-0.0	-0.0	-0.0	165628.953125	-33412.90625	-4542.82421875
0.591	-0.0	-0.0	-0.0	7.580923557281494	29.680423736572266	-352.1125793457031	-17.176681518554688	-41.15346908569336	-590.7470092773438	-0.0	-0.0	-0.0	-0.0	-0.0	-0.0	164340.390625	-33110.0390625	-4473.765625
0.5915	-0.0	-0.0	-0.0	7.759476184844971	29.678586959838867	-353.3747253417969	-17.471696853637695	-41.24623107910156	-588.469482421875	-0.0	-0.0	-0.0	-0.0	-0.0	-0.0	163287.578125	-32725.525390625	-4322.7412109375
0.592	-0.0	-0.0	-0.0	7.177214622497559	30.20844078063965	-355.9852905273437	-17.197343826293945	-41.27581405639648	-583.9808349609375	-0.0	-0.0	-0.0	-0.0	-0.0	-0.0	162091.453125	-32478.755859375	-4340.9306640625
0.5925	-0.0	-0.0	-0.0	7.2698655128479	29.90403938293457	-359.3762512207031	-17.175718307495117	-40.8969955444336	-580.2579345703125	-0.0	-0.0	-0.0	-0.0	-0.0	-0.0	161281.84375	-32453.392578125	-4253.1337890625
0.593	-0.0	-0.0	-0.0	7.543379783630371	30.128982543945312	-361.1120910644531	-17.155670166015625	-41.28449630737305	-576.2359008789062	-0.0	-0.0	-0.0	-0.0	-0.0	-0.0	160011.546875	-32131.900390625	-4234.98095703125
0.5935	-0.0	-0.0	-0.0	7.629488468170166	30.83911895751953	-363.9545593261719	-17.20989227294922	-41.11564636230469	-574.658447265625	-0.0	-0.0	-0.0	-0.0	-0.0	-0.0	159504.546875	-31925.30859375	-4147.26123046875
0.594	-0.0	-0.0	-0.0	7.537690162658691	30.92824935913086	-366.0733947753906	-16.94744873046875	-41.45418167114258	-570.6956176757812	-0.0	-0.0	-0.0	-0.0	-0.0	-0.0	158559.125	-32119.1171875	-4071.10693359375
0.5945	-0.0	-0.0	-0.0	8.026846885681152	31.241779327392575	-368.1921691894531	-16.90471839904785	-41.16143798828125	-568.2373046875	-0.0	-0.0	-0.0	-0.0	-0.0	-0.0	157791.4375	-31675.236328125	-4130.35498046875
0.595	-0.0	-0.0	-0.0	8.611161231994629	31.55122375488281	-372.4040832519531	-16.901121139526367	-41.15106964111328	-564.2424926757812	-0.0	-0.0	-0.0	-0.0	-0.0	-0.0	157056.609375	-31769.08203125	-4041.375732421875
0.5955	-0.0	-0.0	-0.0	9.007837295532228	32.086944580078125	-375.9712524414063	-16.713726043701172	-41.11867904663086	-562.1470947265625	-0.0	-0.0	-0.0	-0.0	-0.0	-0.0	156354.046875	-31642.86328125	-3923.704345703125
0.596	-0.0	-0.0	-0.0	8.875452041625977	32.4890251159668	-378.4257507324219	-16.322784423828125	-40.92924118041992	-559.122802734375	-0.0	-0.0	-0.0	-0.0	-0.0	-0.0	155620.25	-31714.40234375	-3848.666015625
0.5965	-0.0	-0.0	-0.0	9.013021469116213	33.11387634277344	-380.7236022949219	-16.01382064819336	-41.160945892333984	-556.740234375	-0.0	-0.0	-0.0	-0.0	-0.0	-0.0	155271.78125	-31713.80078125	-3760.532470703125
0.597	-0.0	-0.0	-0.0	9.677891731262209	33.37871551513672	-384.4421081542969	-15.610186576843262	-40.48824691772461	-554.1036376953125	-0.0	-0.0	-0.0	-0.0	-0.0	-0.0	154301.890625	-31645.74609375	-3700.700439453125
0.5975	-0.0	-0.0	-0.0	9.188682556152344	33.64686584472656	-387.2645263671875	-15.784972190856934	-40.67075729370117	-552.8870239257812	-0.0	-0.0	-0.0	-0.0	-0.0	-0.0	153919.421875	-31734.5703125	-3666.523681640625
0.598	-0.0	-0.0	-0.0	9.322084426879885	34.628074645996094	-388.497314453125	-15.352293968200684	-40.75382995605469	-550.0621337890625	-0.0	-0.0	-0.0	-0.0	-0.0	-0.0	153595.90625	-32060.5390625	-3582.736572265625
0.5985	-0.0	-0.0	-0.0	9.991617202758787	34.092369079589844	-390.97021484375	-15.04025650024414	-40.44631576538086	-550.0933227539062	-0.0	-0.0	-0.0	-0.0	-0.0	-0.0	153082.703125	-32193.02734375	-3506.073486328125
0.599	-0.0	-0.0	-0.0	10.03622817993164	34.49365234375	-391.6776123046875	-14.632461547851562	-40.49909210205078	-547.9887084960938	-0.0	-0.0	-0.0	-0.0	-0.0	-0.0	152980.546875	-32347.072265625	-3385.548095703125
0.5995	-0.0	-0.0	-0.0	9.903032302856444	34.761741638183594	-392.911376953125	-14.321094512939451	-40.50116729736328	-547.12060546875	-0.0	-0.0	-0.0	-0.0	-0.0	-0.0	152650.09375	-32502.96875	-3269.827880859375
0.6	-0.0	-0.0	-0.0	10.215154647827148	34.4494514465332	-393.26513671875	-14.28243637084961	-40.63435363769531	-546.5758666992188	-0.0	-0.0	-0.0	-0.0	-0.0	-0.0	152623.421875	-32905.33203125	-3122.155029296875
0.6005	-0.0	-0.0	-0.0	9.902366638183594	35.07400894165039	-393.6199951171875	-13.752196311950684	-40.356964111328125	-545.8945922851562	-0.0	-0.0	-0.0	-0.0	-0.0	-0.0	152678.3125	-32965.5390625	-3133.401611328125
0.601	-0.0	-0.0	-0.0	9.45813274383545	34.89606857299805	-393.9686279296875	-13.83698558807373	-40.58665084838867	-546.4222412109375	-0.0	-0.0	-0.0	-0.0	-0.0	-0.0	152625.265625	-33373.5703125	-3061.66552734375
0.6015	-0.0	-0.0	-0.0	9.41060733795166	34.49346923828125	-392.210693359375	-13.313694953918455	-40.54670333862305	-546.96337890625	-0.0	-0.0	-0.0	-0.0	-0.0	-0.0	152723.03125	-33323.19921875	-2897.179443359375
0.602	-0.0	-0.0	-0.0	9.59056282043457	34.3126106262207	-389.9140930175781	-13.395328521728516	-40.31803512573242	-546.936279296875	-0.0	-0.0	-0.0	-0.0	-0.0	-0.0	153203.5	-33845.6015625	-2926.29541015625
0.6025	-0.0	-0.0	-0.0	9.454291343688965	33.51505279541016	-388.1487426757813	-13.484039306640623	-40.71630096435547	-549.2154541015625	-0.0	-0.0	-0.0	-0.0	-0.0	-0.0	153259.625	-33911.1796875	-2883.260986328125
0.603	-0.0	-0.0	-0.0	8.832962036132812	33.91692352294922	-387.2640380859375	-13.260186195373535	-40.583126068115234	-548.7053833007812	-0.0	-0.0	-0.0	-0.0	-0.0	-0.0	153612.453125	-34332.84375	-2956.94140625
0.6035	-0.0	-0.0	-0.0	7.586650848388672	34.315208435058594	-386.7270812988281	-13.260381698608398	-40.71879959106445	-550.0908203125	-0.0	-0.0	-0.0	-0.0	-0.0	-0.0	153952.25	-34739.80078125	-2763.90673828125
0.604	-0.0	-0.0	-0.0	6.332548141479492	34.88966369628906	-386.7486267089844	-13.17299747467041	-41.025978088378906	-550.086181640625	-0.0	-0.0	-0.0	-0.0	-0.0	-0.0	154204.21875	-35143.71875	-2615.207275390625
0.6045	-0.0	-0.0	-0.0	5.172700881958008	35.560020446777344	-390.6170043945313	-13.397327423095703	-41.15890502929688	-551.4869384765625	-0.0	-0.0	-0.0	-0.0	-0.0	-0.0	154541.71875	-35477.28125	-2660.08203125
0.605	-0.0	-0.0	-0.0	4.81078052520752	36.363563537597656	-395.9017028808594	-12.948326110839844	-41.81989288330078	-554.2799072265625	-0.0	-0.0	-0.0	-0.0	-0.0	-0.0	155239.640625	-35886.875	-2660.50732421875
0.6055	-0.0	-0.0	-0.0	5.126927375793457	36.80907440185547	-401.3995971679688	-13.21645736694336	-42.30680847167969	-555.6734008789062	-0.0	-0.0	-0.0	-0.0	-0.0	-0.0	155663.578125	-36366.0703125	-2497.214111328125
0.606	-0.0	-0.0	-0.0	5.622157096862793	37.42719650268555	-405.7962341308594	-12.81778621673584	-42.48273468017578	-557.7684936523438	-0.0	-0.0	-0.0	-0.0	-0.0	-0.0	156269.84375	-36837.6796875	-2467.0869140625
0.6065	-0.0	-0.0	-0.0	6.5082855224609375	38.09815216064453	-410.3627624511719	-12.90671443939209	-42.87994766235352	-559.1709594726562	-0.0	-0.0	-0.0	-0.0	-0.0	-0.0	156754.296875	-37248.78125	-2289.134033203125
0.607	-0.0	-0.0	-0.0	6.510215759277344	38.36741638183594	-416.0289306640625	-12.72945785522461	-43.45248031616211	-560.2144775390625	-0.0	-0.0	-0.0	-0.0	-0.0	-0.0	157115.328125	-37878.484375	-2155.5400390625
0.6075	-0.0	-0.0	-0.0	6.864644527435303	38.20035934448242	-420.6373291015625	-12.640941619873049	-43.8068733215332	-561.9599609375	-0.0	-0.0	-0.0	-0.0	-0.0	-0.0	157434.515625	-38252.1640625	-1977.866943359375
0.608	-0.0	-0.0	-0.0	6.777570724487305	38.42005920410156	-424.3504943847656	-12.153207778930664	-44.02840423583984	-560.9122924804688	-0.0	-0.0	-0.0	-0.0	-0.0	-0.0	157544.859375	-38719.69921875	-1799.6690673828125
